HIERARCHY
ROOT Hips
{
  OFFSET 17.9206 87.456 -77.1491
  CHANNELS 6 Xposition Yposition Zposition Zrotation Xrotation Yrotation
  JOINT ToSpine
  {
    OFFSET -2.69724 7.43032 -0.144315
    CHANNELS 3 Zrotation Xrotation Yrotation
    JOINT Spine
    {
      OFFSET -0.0310711 10.7595 1.96963
      CHANNELS 3 Zrotation Xrotation Yrotation
      JOINT Spine1
      {
        OFFSET 19.9056 3.91189 0.764692
        CHANNELS 3 Zrotation Xrotation Yrotation
        JOINT Neck
        {
          OFFSET 25.9749 7.03908 -0.130764
          CHANNELS 3 Zrotation Xrotation Yrotation
          JOINT Head
          {
            OFFSET 9.52751 0.295786 -0.907742
            CHANNELS 3 Zrotation Xrotation Yrotation
            End Site
            {
              OFFSET 16.4037 0.713936 2.7358
            }
          }
        }
        JOINT LeftShoulder
        {
          OFFSET 17.7449 4.33886 11.7777
          CHANNELS 3 Zrotation Xrotation Yrotation
          JOINT LeftArm
          {
            OFFSET 0.911315 1.27913 9.80584
            CHANNELS 3 Zrotation Xrotation Yrotation
            JOINT LeftForeArm
            {
              OFFSET 28.6126 1.18197 -3.53199
              CHANNELS 3 Zrotation Xrotation Yrotation
              JOINT LeftHand
              {
                OFFSET 27.5088 0.0218783 0.327423
                CHANNELS 3 Zrotation Xrotation Yrotation
                End Site
                {
                  OFFSET 18.6038 -0.000155887 0.382096
                }
              }
            }
          }
        }
        JOINT RightShoulder
        {
          OFFSET 17.1009 2.89543 -12.2328
          CHANNELS 3 Zrotation Xrotation Yrotation
          JOINT RightArm
          {
            OFFSET 1.4228 0.178766 -10.211
            CHANNELS 3 Zrotation Xrotation Yrotation
            JOINT RightForeArm
            {
              OFFSET 28.733 1.87905 2.64907
              CHANNELS 3 Zrotation Xrotation Yrotation
              JOINT RightHand
              {
                OFFSET 27.4588 0.290562 -0.101845
                CHANNELS 3 Zrotation Xrotation Yrotation
                End Site
                {
                  OFFSET 17.8396 -0.255518 -0.000602873
                }
              }
            }
          }
        }
      }
    }
  }
  JOINT LeftUpLeg
  {
    OFFSET -5.61296 -2.22332 -10.2353
    CHANNELS 3 Zrotation Xrotation Yrotation
    JOINT LeftLeg
    {
      OFFSET 2.56703 -44.7417 -7.93097
      CHANNELS 3 Zrotation Xrotation Yrotation
      JOINT LeftFoot
      {
        OFFSET 3.16933 -46.5642 -3.96578
        CHANNELS 3 Zrotation Xrotation Yrotation
        JOINT LeftToeBase
        {
          OFFSET 0.346054 -6.02161 12.8035
          CHANNELS 3 Zrotation Xrotation Yrotation
          End Site
          {
            OFFSET 0.134235 -1.35082 5.13018
          }
        }
      }
    }
  }
  JOINT RightUpLeg
  {
    OFFSET -5.7928 -1.72406 10.6446
    CHANNELS 3 Zrotation Xrotation Yrotation
    JOINT RightLeg
    {
      OFFSET -2.57161 -44.7178 -7.85259
      CHANNELS 3 Zrotation Xrotation Yrotation
      JOINT RightFoot
      {
        OFFSET -3.10148 -46.5936 -4.03391
        CHANNELS 3 Zrotation Xrotation Yrotation
        JOINT RightToeBase
        {
          OFFSET -0.0828122 -6.13587 12.8035
          CHANNELS 3 Zrotation Xrotation Yrotation
          End Site
          {
            OFFSET -0.131328 -1.35082 5.13018
          }
        }
      }
    }
  }
}
MOTION
Frames:	19
Frame Time:	0.0333333
17.9765 78.3105 36.9858 69.2631 -3.15296 16.6988 -70.1915 0 88.8779 153.692 53.6305 -55.6637 12.3251 18.4488 3.47166 -160.46 4.47019 -177.176 -128.946 32.4815 158.358 1.86798 -6.08934 -32.1167 -108.098 43.1896 -116.291 -0.982682 4.57624 7.74905 14.4531 -0.235846 -0.168704 0.118978 1.50658 18.3328 -88.2285 -38.0408 122.711 3.44695 -34.3983 12.0782 5.83804 -7.00665e-005 -0.372323 3.71519 8.30434 95.7181 -163.846 74.7519 164.502 6.48626 4.71421 -0.81992 -11.0701 -44.44 6.30061 -22.9391 -7.6411 86.5238 26.8309 81.1057 -11.5499 -9.13239 -15.6102 1.15318 11.9934 -26.2474 -17.1078 
19.2078 78.667 36.603 68.6112 -4.46627 16.4481 -70.1915 0 88.8779 155.631 53.3969 -57.0563 11.0203 19.392 2.93686 -162.426 4.24438 -175.64 -128.547 32.4145 158.667 2.02191 -5.64762 -33.6932 -111.428 42.5815 -108.014 -0.0632739 4.60772 7.7479 11.4632 -0.12462 0.423807 0.134302 1.8506 16.575 -82.2488 -37.2848 131.212 7.71995 -29.458 17.8497 5.23975 -0.00914824 -0.599221 4.99747 9.38188 94.3322 -163.652 74.9855 164.256 5.84237 4.43735 -0.722325 -11.4326 -45.3387 5.72145 -23.8962 -6.52045 88.8446 24.1343 79.7315 -4.51328 -10.0875 -18.5247 1.08844 11.0124 -23.3726 -15.2172 
20.5293 78.8796 35.8302 67.3506 -5.24507 16.649 -70.1915 0 88.8779 156.765 53.1606 -57.5833 9.40528 19.8564 2.34129 -165.488 3.70504 -175.892 -128.965 32.2873 159.035 2.24788 -4.77182 -34.4673 -114.421 41.6703 -99.5244 0.399759 7.62804 7.78807 10.4133 -0.272272 -1.27369 0.136744 2.05254 16.0462 -75.4839 -34.3619 139.662 11.9773 -21.8712 23.9838 4.67783 0.0224064 0.259599 7.1232 10.135 93.2041 -163.97 75.5735 166.985 7.15709 4.92685 -0.92557 -12.0992 -47.5502 5.49232 -25.3609 -5.79064 90.6357 19.0831 77.0447 3.9377 -10.9113 -19.9962 1.01706 11.1239 -24.5636 -13.9073 
22.1599 79.0546 34.8471 65.7419 -5.89666 16.9407 -70.1915 0 88.8779 157.873 53.6849 -58.5055 7.15162 20.7261 2.29734 -168.032 3.22114 -177.32 -130.096 32.2666 159.397 2.50156 -3.95837 -35.7583 -115.577 39.419 -93.3261 0.206272 10.3874 7.84388 7.00186 -0.191205 -1.40962 0.110378 2.38608 16.5154 -76.5445 -36.7866 140.9 16.9931 -22.0418 33.5742 5.10688 0.0803159 1.68009 9.83575 11.2417 92.1225 -164.58 75.5421 169.218 6.88568 4.51352 -0.886548 -12.1512 -48.001 5.79553 -26.2079 -6.53594 89.4843 15.4717 74.5538 7.65981 -11.7101 -20.144 0.967706 11.4648 -25.7673 -14.0183 
24.1912 79.479 33.4601 65.3129 -6.29597 18.4817 -70.1915 0 88.8779 159.981 54.2245 -59.8227 5.62334 21.9679 2.52084 -171.548 3.08169 -178.468 -131.859 32.651 159.141 2.50605 -3.59037 -34.4278 -115.798 39.518 -87.2586 -0.528242 13.0607 7.91782 8.777 -0.148434 -0.260571 0.0900711 2.72342 16.6706 -75.9997 -37.5118 140.916 19.4174 -19.0988 42.2419 6.61344 0.140024 2.30743 11.2413 12.936 90.2385 -165.748 75.465 173.386 7.19411 4.21911 -0.938401 -12.5377 -48.7309 5.09943 -28.9496 -5.82345 88.7495 12.5523 71.4142 11.6873 -11.383 -19.9881 0.990985 11.6842 -26.299 -14.5972 
26.9486 80.1865 31.9052 63.6763 -4.2072 20.6885 -70.1915 0 88.8779 159.758 56.3383 -59.3727 3.82097 22.2337 4.67801 -174.102 3.75186 -179.212 -132.713 33.2513 157.688 2.47402 -3.03826 -32.0842 -118.946 39.9892 -81.4045 0.52954 15.3007 7.98442 5.92399 -0.251414 -3.05113 0.123368 2.41441 15.9632 -73.1118 -38.3703 139.185 20.2728 -16.1594 48.6584 7.21278 0.218301 3.42354 12.4684 12.9387 88.8321 -166.767 75.4957 177.138 7.42601 4.77359 -0.970429 -12.8546 -49.4873 4.74812 -33.4272 -6.80929 85.5214 9.26466 66.2384 14.9253 -11.7968 -19.4562 0.985549 12.0891 -27.7949 -14.6126 
30.7261 81.7773 29.5959 60.5546 0.679563 24.2278 -70.1915 0 88.8779 157.173 59.9929 -55.6613 1.39144 21.5055 7.78155 -173.575 5.89983 179.619 -131.581 34.7112 156.084 2.41648 -2.7938 -30.5065 -118.753 39.4156 -80.4512 0.537354 13.929 7.9388 7.22169 -0.289121 -2.8003 0.142192 1.32046 17.6312 -70.5293 -38.5542 132.89 19.8797 -14.3272 51.4568 6.1977 0.235991 4.47657 11.9005 11.4282 88.7612 -166.536 77.0314 178.903 7.59793 5.22777 -0.995322 -12.6376 -49.3976 5.45626 -40.9388 -7.93784 79.9649 6.03211 57.3456 16.3328 -10.5271 -20.6675 1.02409 11.2279 -24.4169 -14.8781 
35.1595 83.7456 26.646 57.2003 5.87629 25.59 -70.1915 0 88.8779 152.098 63.6693 -51.8438 -1.01532 21.4559 8.99647 -171.302 8.49613 178.245 -131.607 37.7587 156.446 2.27516 -2.97523 -28.8518 -116.47 38.0991 -82.1825 -0.40787 12.2022 7.89271 8.88113 -0.237907 -1.34825 0.163785 0.498005 20.357 -68.0355 -40.3632 122.801 18.4295 -13.2139 51.1153 7.03548 0.291583 4.83505 7.22244 10.8741 92.6752 -162.947 80.2354 174.709 7.19766 5.37283 -0.927883 -11.3865 -46.3348 7.1162 -48.6381 -6.70702 81.1312 3.55425 47.1141 11.0765 -8.00634 -20.0958 1.17924 10.5638 -20.3184 -16.8891 
39.6856 86.0573 23.0503 54.6012 13.3369 24.6044 -70.1915 0 88.8779 144.486 65.1013 -47.9139 -1.44865 21.1364 7.65324 -170.24 10.4938 178.273 -133.948 41.117 157.089 2.16639 -2.83356 -26.8447 -112.865 36.8461 -87.256 -1.5456 7.7828 7.79489 10.2748 -0.192696 -0.456037 0.264752 -0.715354 22.5035 -65.2797 -43.329 114.744 17.3022 -14.0042 47.1086 7.94101 0.150425 1.98507 -2.99229 6.95657 98.8276 -133.288 85.837 138.937 5.37459 1.63489 -0.718935 -10.1928 -42.2392 8.02183 -54.5998 -9.48495 81.2517 2.36433 44.3417 3.84796 -5.18078 -14.5562 1.18594 10.5123 -15.6909 -21.2406 
43.4651 88.062 19.4253 52.8646 17.8756 24.3672 -70.1915 0 88.8779 141.292 64.623 -46.7508 -1.05984 21.5636 4.10782 -171.858 11.7404 179.344 -137.327 44.0816 158.147 2.3187 -1.88112 -26.9568 -109.274 33.0693 -94.2256 -1.97722 4.28979 -1.12344 10.3797 -0.307362 -1.65723 0.466695 -2.22491 25.992 -63.2977 -44.1856 108.493 15.3918 -14.1291 42.5018 9.06766 0.122941 1.29891 -11.8388 4.29774 102.876 -33.6594 84.4418 34.0027 6.35126 4.14435 -0.80782 -11.9826 -47.8014 6.25104 -54.1647 -8.94665 85.0104 2.08341 52.3082 -4.09555 -4.87627 -5.8061 0.928983 7.56966 -1.55007 -19.6969 
46.9989 89.5832 16.577 53.0585 21.5513 22.3656 -70.1915 0 88.8779 139.806 63.3012 -51.137 0.668909 21.5017 2.44211 -174.596 12.121 179.378 -140.378 45.799 159.616 2.33976 -1.50165 -26.4862 -105.325 28.1883 -102.224 -1.89102 0.563595 -11.4105 12.1162 -0.572782 -3.61387 0.475291 -2.10057 27.7937 -66.6526 -47.8583 99.4504 13.6026 -13.2954 39.6445 10.1234 0.0905729 0.724198 -20.0007 2.8651 107.538 -17.2796 79.5427 14.2791 6.52164 4.08244 -0.835318 -12.1014 -47.1557 5.01901 -47.7801 -5.01051 92.8627 8.29715 73.3168 -8.03555 -5.92637 -3.27995 0.953841 8.48781 -8.91694 -18.3021 
50.5995 90.2272 14.0015 51.962 31.9311 23.0461 -70.1915 0 88.8779 136.318 59.8803 -54.3471 1.94975 17.6254 5.57781 -173.686 14.033 179.245 -138.053 47.6641 160.605 2.11875 -2.3078 -25.0406 -99.7682 21.8705 -112.758 -0.253666 -5.56503 -21.0877 11.338 -0.712989 -5.33995 0.504235 -2.38635 27.0026 -67.9821 -52.2892 92.0275 10.1422 -9.74607 37.2509 10.2581 0.0271766 -0.0434308 -27.2999 -4.52496 104.79 -14.5967 76.8126 6.98638 5.9038 2.18202 -0.778697 -10.7197 -42.7799 5.86577 -40.5365 -4.45898 90.6039 146.676 82.7319 -142.243 -6.59461 -2.14187 1.00035 9.20635 -14.6999 -16.4531 
54.2903 89.7635 11.5229 47.0459 39.7499 24.9819 -70.1915 0 88.8779 130.766 58.7156 -54.3859 2.50225 15.0693 6.46351 -171.494 15.8588 176.803 -136.458 48.9226 160.076 1.70287 -3.94789 -21.5513 -106.5 18.6162 -119.884 1.76594 -0.464615 -30.333 10.881 -0.746684 -5.97091 0.659906 -3.42768 27.4087 -72.9726 -55.8998 80.8973 7.86646 -6.90173 36.4719 8.0173 0.0657864 0.650755 -31.119 -11.3924 101.464 -13.0077 74.385 1.38112 5.02163 1.46643 -0.676273 -10.5646 -41.5948 4.97294 -25.357 -5.39054 89.9843 167.853 65.4146 -163.916 -7.1124 -2.72937 1.05943 10.4105 -19.218 -17.3873 
59.5196 89.7262 6.97765 41.0471 42.1695 29.9546 -70.1915 0 88.8779 126.645 59.3777 -51.5513 1.65448 14.4093 7.35565 -170.119 17.2502 177.558 -138.694 51.5875 162.238 1.71094 -3.60163 -21.0688 -110.164 15.4322 -130.158 4.72254 3.27417 -39.6271 12.0903 -0.985491 -7.40265 0.56275 -2.942 26.1088 -77.919 -59.2579 67.5866 5.98359 -4.03967 38.98 7.31022 0.105362 1.43555 -37.022 -12.0423 99.6149 -9.25237 68.1749 -6.06345 6.47166 0.283445 -0.887801 -10.7385 -42.1895 4.89949 -7.85713 -2.02338 90.6361 169.54 59.1573 -166.151 -7.21035 -2.8994 1.07052 11.6269 -23.0622 -19.5682 
65.2403 90.4119 0.291629 37.0314 44.882 36.0569 -70.1915 0 88.8779 125.755 58.6788 -48.4891 -0.191453 13.409 9.00344 -167.814 18.7498 -179.999 -140.504 54.1902 164.151 1.54246 -4.17885 -18.9919 -109.554 17.943 -132.132 10.6285 7.08884 -50.8697 14.2227 -1.49058 -9.98605 0.283654 -0.864305 23.9811 -80.8853 -62.1877 56.5912 -0.234964 3.51843 39.5292 6.61732 0.0942349 1.43108 -47.9501 -10.9465 95.0929 -6.01456 57.6069 -13.8502 7.13611 1.48103 -0.957131 -10.9609 -43.2039 5.18747 2.60835 -1.69548 89.0083 168.612 63.8464 -165.965 -7.6255 -6.03196 1.12668 11.5587 -22.77 -19.5244 
71.2404 92.8362 -7.59392 37.2481 45.8399 42.1 -70.1915 0 88.8779 129.365 58.0347 -45.0958 1.77988 13.5481 9.36563 -169.134 19.7641 -177.921 -139.024 54.8703 161.28 1.53656 -3.82955 -18.3754 -103.115 20.9412 -127.559 14.3857 6.39291 -63.3889 14.7648 -1.39914 -8.8797 -0.0263013 2.04883 23.195 -78.8513 -63.8057 56.3187 -6.65685 11.8192 38.7382 5.67729 0.104475 1.99699 -59.5235 -7.74705 85.0604 -3.91492 46.9297 -13.7735 4.56806 -0.774823 -0.688316 -7.75803 -30.8883 6.55559 2.15618 -0.55678 82.6948 159.029 78.4827 -156.219 -7.74335 -7.57676 1.14123 11.401 -23.0602 -18.1448 
76.4375 95.6618 -15.9342 41.7171 46.2358 40.2232 -70.1915 0 88.8779 134.864 57.379 -47.4942 4.00999 14.9866 7.91317 -169.163 19.75 -178.748 -140.205 55.1636 162.236 1.71127 -2.86249 -19.9297 -90.302 23.8263 -124.578 13.182 5.7558 -63.4862 14.9958 -1.06122 -6.2232 -0.244333 3.05596 26.6876 -68.9632 -60.3947 68.2133 -11.3106 18.3731 38.3799 4.75388 0.130472 3.24546 -66.7801 -8.08829 81.781 -2.71388 43.4476 -6.59205 -2.53038 4.87819 0.6486 -1.58046 -2.58373 4.34381 -6.16135 1.08061 79.2642 30.9298 83.2432 -23.6725 -7.37619 -4.19666 1.09598 10.9775 -22.7211 -16.0073 
81.4955 96.4852 -23.2444 43.1456 44.1757 35.7109 -70.1915 0 88.8779 133.193 60.7113 -47.8842 7.39867 17.4883 5.62537 -168.628 18.9585 178.131 -140.951 54.1291 162.766 2.01605 -2.64419 -24.1899 -76.5275 22.2519 -125.441 6.72728 4.35466 -47.7154 11.1676 -0.794237 -6.24864 -0.240292 2.36269 30.1716 -66.4655 -54.3141 80.1392 -16.0454 26.7888 37.113 3.28977 0.100585 3.94305 -61.2954 -9.6557 87.8162 -5.06808 57.148 -8.80405 -0.928039 6.65936 0.527687 -2.25217 8.49206 13.7515 -12.132 1.69772 78.5411 12.2441 75.6507 -5.18748 -7.03736 -0.774989 1.03222 9.22086 -16.0253 -15.2125 
86.634 96.0793 -29.8388 46.7219 43.2245 32.9061 -70.1915 0 88.8779 134.892 61.7451 -49.5037 11.7799 19.1407 2.58341 -167.286 18.5244 174.961 -140.998 53.4769 163.68 2.03804 -3.08682 -25.429 -60.8842 19.9387 -127.795 2.25508 0.337433 -24.4519 10.1933 -0.943769 -8.60137 -0.175276 1.66152 32.8082 -71.2917 -48.5518 87.8513 -16.7149 26.3818 38.5205 1.55815 0.0384708 4.30662 -51.2647 -8.01507 90.256 -18.5861 79.2174 10.6836 1.36977 10.8503 0.366355 -5.04418 1.31326 21.7553 -22.4945 3.64932 75.7901 8.54723 71.5997 -3.41045 -6.53781 -3.97472 1.02108 7.47507 -10.6426 -13.3641 
